<svg version="1.0" xmlns="http://www.w3.org/2000/svg" width="352" height="352" viewBox="0 0 264 264"><path d="M149.5 6.6c5.8 15.5 7.9 26 7.8 39.9-.1 9.8-.6 14.9-2.2 21-2.3 8.6-7.4 22.3-7.7 20.9-.1-.5-.5-3.5-.9-6.7-.4-3.1-1.1-5.5-1.6-5.2-.5.4-.9 1.3-.9 2.1s-3.6 10.8-7.9 22.2c-8.8 23.1-11.3 33.3-11.2 45.9.1 10.6 1.3 18 5.1 30.4 2.5 8.1 8.6 22.9 9.4 22.9.2 0-.2-3.2-.9-7.1-2.8-16-1.6-32.7 3.6-49.9 2.7-9.3 5.3-15.7 17.4-43 5.3-11.9 10.2-27.8 11.1-35.7.8-6.3 2.2-7.2 1.9-1.1-.8 12.1-3.5 21.7-14.6 51.4-8.2 21.9-12.3 36.6-13.5 48.2-1 9.2-.8 12.7 1.1 31.2 1.1 10.2 1.7 16.1 2 20.1.1 2.4.8 6.6 1.4 9.4 1.3 5.6 7.2 22.7 7.7 22.2.2-.1.4-8.1.5-17.7 0-9.6.5-20 1-23s1.1-7.1 1.3-9c1.5-12.6 9.4-32.1 21-52 3.1-5.2 5.6-9.8 5.6-10.2 0-.5-2.4.7-5.2 2.7-5.1 3.4-7.6 3.2-4.5-.3 4.1-4.7 10.4-19.1 12.3-28.2 1.9-9.6 2.6-28.9 1.3-38-1.9-13.8-7.9-28.9-16.2-41.6-4.9-7.5-18.8-22.9-23.8-26.5L147-.2l2.5 6.8z"/><path d="M136.5 6.6c-3.1 4.1-5.3 10.6-4.9 14.7.2 2.3 0 2.6-1.1 1.7-1.9-1.6-9.6-1.9-13-.4C114 24 107 30.3 107 31.9c0 .7 2.2 1.1 5.8 1.1 12.8.1 22.6 8.8 23.9 21.5.7 6.9-.1 10.4-2.4 10-1-.1-1.6-.9-1.4-1.6 1-3.6.3-11.7-1.3-14.7-9.4-18.2-36.1-13.8-39.2 6.4-1 6.7 1.1 12.3 6.7 17.6 4.4 4.2 4.8 4.7 3 5.3-3.9 1.2-10.1-5.6-12.5-13.7-2.5-8.4.3-19 6.5-24.2 4.7-4 3.8-4.9-4.1-4.4-7.9.6-12.8 3.4-15 8.7-1.3 3.3-2.7 4-3.6 1.6-1-2.5-9.8-6.2-14.6-6.1-4.1.1-4.3.3-4.6 3.3-.4 4.1 3.3 12.8 6.6 15.4 2.8 2.2 2.9 2.1-1.5 4.3-5.5 2.8-9.5 14.3-7.2 20.4.9 2.4.9 2.3 4.7-1.6 9.6-10.2 23.8-10.9 33.9-1.7 4.1 3.7 4.6 4.5 3.4 5.8-1.2 1.5-1.5 1.3-3.7-1.3-7-8.3-20.9-9.2-29.2-2-14.4 12.5-5.2 36.3 14.1 36.2 4-.1 4.8.2 4.3 1.4-.3.9-.6 1.8-.6 2 0 1.4-10.2 0-14.5-2-9.4-4.4-13.5-10.4-14.3-20.7-.2-3.8-.8-6.9-1.1-6.9-1.7 0-5.3 3.5-7.6 7.5-3 5.1-3.7 10.9-1.8 14.8 1.3 2.7 1.3 2.7-1.2 2.3-3.7-.7-11.5 1.9-15.4 5.2-2.9 2.4-3.2 3.1-2.3 4.8 1.7 3.2 10.5 7.5 15.6 7.6 4.2 0 4.5.2 3.5 2.1-1.4 2.5-1.4 8.3 0 11.9 1.2 3.3 7.9 10.8 9.5 10.8.9 0 1.2-1.5 1-4.6-.8-13.9 11.3-26.2 24.8-25.2 2.8.2 4.2.8 4.3 1.9.2 1.2-.7 1.6-4.5 1.6-9 0-17 5.8-19.9 14.2-4.4 13.2 6.1 27.1 20.4 27.1 4.3 0 13-4.4 15.1-7.5 1.6-2.4 1.8-2.5 3.3-1 1.5 1.5 1.3 2-2.7 5.5-5.2 4.7-11.5 7-18 6.5-6.8-.5-11-2.5-15.9-7.5-4.2-4.2-4.3-4.2-5.2-1.9-2.4 6.7 1.8 17.7 7.8 20.6l3.6 1.6-3.6 3.7c-3.7 3.9-6.3 10.8-5.7 15.1.3 2.2.8 2.4 4.9 2.2 5.5-.1 11.6-2.8 14.3-6.1l1.9-2.3 1.7 3.9c1 2.2 3.2 4.8 5.1 6 3.8 2.3 11.6 3.7 15.3 2.8 2.5-.6 2.5-.6-1.8-5-9.6-9.9-9.4-24.7.4-34.5 2.9-2.9 5.9-3.9 7.2-2.5.4.3-1.5 2.7-4.2 5.2-7.9 7.7-9 17-3.1 26.4 7 11.1 23.9 12 32.5 1.8l2.6-3.1-2.6-5.2c-1.5-2.8-3.7-7.8-4.9-11.2-2.1-5.6-2.7-6.2-8.3-9-17.6-9-29.6-24.7-32.7-42.8-1-6-.7-17.9.6-23.3 2-8.7 8.7-21 14.8-27.3 11.4-11.8 24.4-17.7 40.8-18.5l5.8-.3-.3-6.9c-.3-7.1.7-11 4.6-16.7 1.9-2.8 1.9-2.9-1-15-2.9-12.4-6.5-23.4-7.8-24.2-.4-.3-2 1.1-3.5 3.1zm-23.2 36.1c-2.9.6-7.3 4.8-7.3 7 0 1 .7 2.9 1.6 4.1 1.7 2.5 6.4 3 6.4.7 0-.8-.7-1.5-1.5-1.5-2.2 0-2-4.8.3-5.2 2.5-.6 6.2 1.2 6.3 3.1.6 8.2-5.7 12.2-12.3 7.8-7.8-5.3-3.9-16.7 5.7-16.5 2.1.1 2.4.2.8.5zM75.2 87.1c1.1.6 2.6 2.7 3.5 4.6 2 4.9.4 8.8-4.4 10.4-3.1 1-3.8.9-5.5-.9-1.5-1.5-1.9-2.7-1.4-4.6.8-3.1 3.4-3.4 4.4-.6 1.1 3 3.6.9 2.8-2.4-.8-3.2-4.8-5.1-7.7-3.6-2 1.1-5.2 6.4-4.3 7.3.3.3 0 .8-.7 1.3-.9.5-1-.4-.5-3.7 1.1-7.3 7.7-11.1 13.8-7.8zm.7 62.4c8.5 4.3 1.2 17.5-8.4 15.1-3.2-.8-6.5-6.1-6.4-10.1v-3l1.1 2.5c1.9 4.7 2.5 5.5 4.8 6.7 1.7.8 2.9.8 4.7 0 3.5-1.6 4.4-7.7 1.2-7.7-.6 0-.8.4-.5.9.9 1.3-1.9 3.2-3.8 2.5-2.8-1.1-1.8-6.4 1.4-7.7 2.4-.9 2.9-.8 5.9.8zm41.3 43.2c3.9 4 1.9 10.7-3.1 10.1-2-.2-2.6-.9-2.6-2.8 0-1.8.5-2.4 1.7-2.2 1.2.2 1.6-.2 1.2-1.3-1-2.4-5.1-1.8-7 1-2.4 3.7-1.2 6.9 3.8 9.4l4.3 2.1-3.5-.4c-4.9-.5-6.4-1.3-8.2-4.4-4.9-8.5 6.5-18.3 13.4-11.5zm81-145c5.8 6.7 7.2 17.5 5.2 41.3-.8 10.2.5 17.6 4.7 25.9 3.4 6.9 8.8 12 19 18.1 8 4.9 11.1 8.3 10.1 11-.4 1-3.3 4.6-6.5 8-7.5 8.1-7.9 9.9-3.3 15 2 2.2 3.6 4.6 3.6 5.4 0 2.4-5.8 5.8-10 6-2.2.1-4.2.5-4.5.8-.4.4 1.6 2.4 4.3 4.5 2.8 2.1 5.3 4.4 5.6 5.2.4.7-.5 2.8-1.8 4.6-3.6 4.6-3.9 7.3-2.2 15.6 1.4 6.8 1.4 7.7-.2 10.9-2.8 5.8-7.6 7.5-21.2 7.5-6.3 0-14.2-.3-17.5-.7-4.6-.6-5.4-.5-3.5.3 8.6 3.7 30.2 4.7 37 1.7 8.3-3.6 11.1-9.7 9.1-19.5-1.6-8.1-1.4-10.3 1.4-14.3 3.2-4.6 2.3-7.7-2.9-11-2-1.2-3.6-2.5-3.6-3 0-.4 1.7-1 3.8-1.4 4.1-.6 9.2-4.5 9.2-6.9 0-.8-1.9-3.6-4.2-6.2l-4.2-4.7 7.2-6.7c8.4-7.8 10.7-12.1 8.7-16.7-1.3-3.2-3.1-4.6-16.5-13.3-9.2-6-12.3-9-15.3-14.4-2-3.9-2.2-5.6-2.3-22.3-.2-26.1-1.4-33.9-6-39.4-1.4-1.6-3.1-3-3.6-3-.6 0-.4.8.4 1.7z"/><path d="M138 69.8c-1.9.9-4 2.4-4.7 3.2-1.1 1.3-1.2 1.2-1.3-.8 0-3-2.4-2.4-2.8.6-.2 1.2-.8 2-1.3 1.6-.5-.3-2.9-.2-5.2.2l-4.2.7 4.8 1.3c2.6.6 5.8 1.9 7.1 2.8 2.4 1.5 2.5 1.4 4.6-2.2 1.2-2 2.8-4.1 3.6-4.5 1.2-.7 4-4.8 3.2-4.6-.2 0-1.9.8-3.8 1.7zm-22.7 7.9c0 1-.4 4.7-.7 8.3-.8 8.2.5 11.4 5.1 11.8 2.4.2 3.5-.2 4.5-1.7.7-1.2 2-2.1 2.9-2.1 2.4 0 6.9-3.9 6.9-5.8-.1-3.3-3.6-6.3-10.9-9.2-4-1.7-7.4-3-7.5-3-.1 0-.2.8-.3 1.7zm8.9 4.2c5 2.1 7.1 4.3 6.6 6.8-.4 2.4-4.6 3-5.4.8-.4-.9-.2-2.1.5-2.8.8-.8 1.1-.7 1.1.6 0 .9.5 1.7 1 1.7 1.4 0 1.3-2.3-.2-3.8-.8-.8-1.7-.8-3-.1-1.4.7-2 .6-2.4-.6-.3-.8-1.2-1.5-2-1.5-1 0-1.1.6-.5 2.2.6 1.6.4 2.6-.7 3.4-1.6 1.2-1 4.4.7 4.4.6 0 .8-.7.5-1.5-.4-.9 0-1.5 1-1.5 1.9 0 2.2 3.5.4 4.7-3.8 2.3-5.4-.2-4.9-8.1.3-7.5.6-7.6 7.3-4.7zm-13.5-1.3c-1.6 2.2-2.1 3.3-2.6 6.3-.1.3-.7-.4-1.5-1.5-1.4-1.8-1.5-1.8-2.1-.1-.4.9-.2 2.4.5 3.2 1 1.2.9 1.5-.7 1.5-1.1 0-3.3 1.2-4.9 2.7-2.9 2.6-2.9 2.7-.4 1.9 1.4-.4 4.9-1 7.8-1.3 5.2-.5 5.3-.6 4.9-3.7-.2-1.7.2-5 .9-7.4 1.5-4.8.8-5.3-1.9-1.6zm-9.1 15.5c-3.2.5-6.1 1.1-6.4 1.4-.9.9 4.9 13.2 7.3 15.5 3.4 3.2 7.7 2.4 9-1.5.6-1.7 2-4.4 3.3-5.9 2.7-3.5 2.8-5.7.3-8-2.4-2.2-6-2.6-13.5-1.5zm11.9 2.9c1 1.7-.3 6-1.9 6-1.6 0-4.1-2.8-3.3-3.7.4-.3 1.3 0 2.2.7 1.2 1 1.5 1 1.5-.4 0-2.2-3-3.3-4.4-1.5-.6.8-2.1 1.3-3.3 1.1-2.3-.3-3 .8-1.5 2.2.4.4.7 2 .7 3.4 0 2.1.5 2.8 2.5 3 2.3.2 2.4.2.7-1.2-1.3-1-1.5-1.6-.7-2.1.7-.4 1.9-.1 2.7.8 1.2 1.1 1.2 1.9.4 3.5-1.1 2-2.5 2.3-4.8.9-1.1-.7-6.3-10.8-6.3-12.2 0-1.4 14.6-1.9 15.5-.5zm-20.9 4.4c-.4 1.8-.4 4.1 0 5 .4 1.2 0 1.6-1.5 1.6-2.7 0-2.7 2.6 0 3.3l2 .6-2 2c-1.2 1.2-2.1 2.5-2.1 3s-.3 1.8-.6 2.8c-.4 1.1.5.6 2.2-1.3 1.6-1.8 4.4-3.9 6.2-4.8l3.2-1.7-1.9-2.7c-1.1-1.5-2.5-4.6-3.1-7-.6-2.3-1.2-4.2-1.4-4.2-.2 0-.7 1.5-1 3.4zm5.7 14c-1.2.7-3.8 2.6-5.9 4.4-2 1.8-4.1 3.2-4.6 3.2-1.9 0-.5 1.8 4.5 5.6 4.7 3.7 7.9 5.4 11.5 6 2.5.5 5.5-3.6 4.8-6.4-.8-3.4-.8-4 0-7.5 1.3-5.4-4.6-8.4-10.3-5.3zm7.5 4.5c-.3 2.8-3.8 3.7-4.6 1.2-.3-1 0-1.2 1.2-.8.9.4 1.6.2 1.6-.2 0-1.2-2.9-2.3-4.1-1.5-.5.3-.9 1.3-.9 2.3 0 1.1-1 2.2-2.2 2.5l-2.3.7 2.2 1.1c1.2.6 2.3 1.9 2.6 2.9.5 2 4.7 2.7 4.7.9 0-.6-.7-1-1.5-1-1.9 0-2-1.6-.2-2.3 2.2-.8 3.9.8 3.5 3.4-.5 3.6-3.4 3.5-9.5-.6-6.2-4.1-6.1-4.4 1.3-9.4 5.4-3.5 8.7-3.2 8.2.8zm-17.6 10.2c.6 1.9 1.8 4.2 2.6 5.1 1.4 1.6 1.3 1.8-.1 1.8-1 0-1.7.7-1.7 1.6 0 1.2.7 1.5 2.4 1.2 2.2-.4 2.3-.3 1.5 1.9-.5 1.3-.5 3.3.1 4.7.5 1.3.6 2.7.2 3.2-.4.4-.1.4.6 0 .6-.4 1.2-1.7 1.2-2.9s1.1-4.1 2.4-6.4c2.4-4.2 2.4-4.2.4-4.9-1.2-.3-4-2.4-6.4-4.6l-4.4-4 1.2 3.3zm16.2 5.9c-2.6 1-4.8 4.4-7.4 11.2-2.4 6.2-2.4 6.4-.7 6.6.6 0 4.6.4 8.8.8 7 .6 7.8.5 9.8-1.5 2.8-2.8 2.7-5.4-.4-8.2-1.3-1.3-2.5-3.2-2.5-4.2 0-1.7-3.4-5.8-4.7-5.6-.5 0-1.7.4-2.9.9zm4.5 3.4c1.6 1.9-.3 5.8-2.4 5-2-.8-1.9-2.4.2-2.4 1.3 0 1.4-.3.5-1.2-1.6-1.6-4.4.9-3.7 3.3.3.9.1 2-.5 2.4-1.8 1.1-1.1 3.3 1 2.8 1.1-.3 2.7.2 3.6 1.1 1.2 1.3 1.9 1.4 3 .5 2.1-1.7 1.7-3.1-.6-2.4-2.2.7-2.6-.5-.8-2.3 1.7-1.7 4.8.4 4.8 3.2 0 1.3-.6 2.6-1.2 2.8-1.8.7-13.1-.1-14-1-.8-.8 2.6-8.9 4.9-11.4 1.9-2.2 3.7-2.3 5.2-.4zM97 157.8c0 1.4 5.5 5.2 6.7 4.8 1.6-.6 1.7.6.2 2.1-2 2 0 3.6 2.5 2 2-1.4 2.2-1.3 2.3.6.1 1.1 1.4 3.2 2.8 4.6l2.6 2.6-1.4-4c-.8-2.2-1.3-5.7-1.1-7.7.3-3.5.3-3.6-2.9-3.4-1.8.2-5.1-.3-7.4-1-2.4-.6-4.3-.9-4.3-.6zm45.5 63.4c-.5 3.5-.3 9.9.4 17.6 0 .7.9 1.2 1.9 1.1 3.4-.3 4.2.1 4.2 2.2 0 1.1-1 2.9-2.1 3.8l-2.2 1.7 2.8 6.2c1.5 3.3 3.6 6.9 4.7 7.9 1.9 1.7 2 1.7 1.3-2.2-.4-2.2-.9-4.9-1.1-6-.2-1 .1-3.6.7-5.7.9-3.5.7-4.4-2.6-10.2-2-3.5-4.2-9.4-5-13.1-.7-3.7-1.6-6.9-1.9-7.2-.2-.3-.7 1.5-1.1 3.9z"/></svg>