<?xml version="1.0" standalone="no"?>
<!DOCTYPE svg PUBLIC "-//W3C//DTD SVG 20010904//EN"
 "http://www.w3.org/TR/2001/REC-SVG-20010904/DTD/svg10.dtd">
<svg version="1.0" xmlns="http://www.w3.org/2000/svg"
 width="264.000000pt" height="264.000000pt" viewBox="0 0 264.000000 264.000000"
 preserveAspectRatio="xMidYMid meet">
<metadata>
Created by potrace 1.11, written by Peter Selinger 2001-2013
</metadata>
<g transform="translate(0.000000,264.000000) scale(0.100000,-0.100000)"
fill="#000000" stroke="none">
<path d="M1495 2574 c58 -155 79 -260 78 -399 -1 -98 -6 -149 -22 -210 -23
-86 -74 -223 -77 -209 -1 5 -5 35 -9 67 -4 31 -11 55 -16 52 -5 -4 -9 -13 -9
-21 0 -8 -36 -108 -79 -222 -88 -231 -113 -333 -112 -459 1 -106 13 -180 51
-304 25 -81 86 -229 94 -229 2 0 -2 32 -9 71 -28 160 -16 327 36 499 27 93 53
157 174 430 53 119 102 278 111 357 8 63 22 72 19 11 -8 -121 -35 -217 -146
-514 -82 -219 -123 -366 -135 -482 -10 -92 -8 -127 11 -312 11 -102 17 -161
20 -201 1 -24 8 -66 14 -94 13 -56 72 -227 77 -222 2 1 4 81 5 177 0 96 5 200
10 230 5 30 11 71 13 90 15 126 94 321 210 520 31 52 56 98 56 102 0 5 -24 -7
-52 -27 -51 -34 -76 -32 -45 3 41 47 104 191 123 282 19 96 26 289 13 380 -19
138 -79 289 -162 416 -49 75 -188 229 -238 265 l-29 21 25 -68z"/>
<path d="M1365 2574 c-31 -41 -53 -106 -49 -147 2 -23 0 -26 -11 -17 -19 16
-96 19 -130 4 -35 -14 -105 -77 -105 -93 0 -7 22 -11 58 -11 128 -1 226 -88
239 -215 7 -69 -1 -104 -24 -100 -10 1 -16 9 -14 16 10 36 3 117 -13 147 -94
182 -361 138 -392 -64 -10 -67 11 -123 67 -176 44 -42 48 -47 30 -53 -39 -12
-101 56 -125 137 -25 84 3 190 65 242 47 40 38 49 -41 44 -79 -6 -128 -34
-150 -87 -13 -33 -27 -40 -36 -16 -10 25 -98 62 -146 61 -41 -1 -43 -3 -46
-33 -4 -41 33 -128 66 -154 28 -22 29 -21 -15 -43 -55 -28 -95 -143 -72 -204
9 -24 9 -23 47 16 96 102 238 109 339 17 41 -37 46 -45 34 -58 -12 -15 -15
-13 -37 13 -70 83 -209 92 -292 20 -144 -125 -52 -363 141 -362 40 1 48 -2 43
-14 -3 -9 -6 -18 -6 -20 0 -14 -102 0 -145 20 -94 44 -135 104 -143 207 -2 38
-8 69 -11 69 -17 0 -53 -35 -76 -75 -30 -51 -37 -109 -18 -148 13 -27 13 -27
-12 -23 -37 7 -115 -19 -154 -52 -29 -24 -32 -31 -23 -48 17 -32 105 -75 156
-76 42 0 45 -2 35 -21 -14 -25 -14 -83 0 -119 12 -33 79 -108 95 -108 9 0 12
15 10 46 -8 139 113 262 248 252 28 -2 42 -8 43 -19 2 -12 -7 -16 -45 -16 -90
0 -170 -58 -199 -142 -44 -132 61 -271 204 -271 43 0 130 44 151 75 16 24 18
25 33 10 15 -15 13 -20 -27 -55 -52 -47 -115 -70 -180 -65 -68 5 -110 25 -159
75 -42 42 -43 42 -52 19 -24 -67 18 -177 78 -206 l36 -16 -36 -37 c-37 -39
-63 -108 -57 -151 3 -22 8 -24 49 -22 55 1 116 28 143 61 l19 23 17 -39 c10
-22 32 -48 51 -60 38 -23 116 -37 153 -28 25 6 25 6 -18 50 -96 99 -94 247 4
345 29 29 59 39 72 25 4 -3 -15 -27 -42 -52 -79 -77 -90 -170 -31 -264 70
-111 239 -120 325 -18 l26 31 -26 52 c-15 28 -37 78 -49 112 -21 56 -27 62
-83 90 -176 90 -296 247 -327 428 -10 60 -7 179 6 233 20 87 87 210 148 273
114 118 244 177 408 185 l58 3 -3 69 c-3 71 7 110 46 167 19 28 19 29 -10 150
-29 124 -65 234 -78 242 -4 3 -20 -11 -35 -31z m-232 -361 c-29 -6 -73 -48
-73 -70 0 -10 7 -29 16 -41 17 -25 64 -30 64 -7 0 8 -7 15 -15 15 -22 0 -20
48 3 52 25 6 62 -12 63 -31 6 -82 -57 -122 -123 -78 -78 53 -39 167 57 165 21
-1 24 -2 8 -5z m-381 -444 c11 -6 26 -27 35 -46 20 -49 4 -88 -44 -104 -31
-10 -38 -9 -55 9 -15 15 -19 27 -14 46 8 31 34 34 44 6 11 -30 36 -9 28 24 -8
32 -48 51 -77 36 -20 -11 -52 -64 -43 -73 3 -3 0 -8 -7 -13 -9 -5 -10 4 -5 37
11 73 77 111 138 78z m7 -624 c85 -43 12 -175 -84 -151 -32 8 -65 61 -64 101
l0 30 11 -25 c19 -47 25 -55 48 -67 17 -8 29 -8 47 0 35 16 44 77 12 77 -6 0
-8 -4 -5 -9 9 -13 -19 -32 -38 -25 -28 11 -18 64 14 77 24 9 29 8 59 -8z m413
-432 c39 -40 19 -107 -31 -101 -20 2 -26 9 -26 28 0 18 5 24 17 22 12 -2 16 2
12 13 -10 24 -51 18 -70 -10 -24 -37 -12 -69 38 -94 l43 -21 -35 4 c-49 5 -64
13 -82 44 -49 85 65 183 134 115z"/>
<path d="M1982 2163 c58 -67 72 -175 52 -413 -8 -102 5 -176 47 -259 34 -69
88 -120 190 -181 80 -49 111 -83 101 -110 -4 -10 -33 -46 -65 -80 -75 -81 -79
-99 -33 -150 20 -22 36 -46 36 -54 0 -24 -58 -58 -100 -60 -22 -1 -42 -5 -45
-8 -4 -4 16 -24 43 -45 28 -21 53 -44 56 -52 4 -7 -5 -28 -18 -46 -36 -46 -39
-73 -22 -156 14 -68 14 -77 -2 -109 -28 -58 -76 -75 -212 -75 -63 0 -142 3
-175 7 -46 6 -54 5 -35 -3 86 -37 302 -47 370 -17 83 36 111 97 91 195 -16 81
-14 103 14 143 32 46 23 77 -29 110 -20 12 -36 25 -36 30 0 4 17 10 38 14 41
6 92 45 92 69 0 8 -19 36 -42 62 l-42 47 72 67 c84 78 107 121 87 167 -13 32
-31 46 -165 133 -92 60 -123 90 -153 144 -20 39 -22 56 -23 223 -2 261 -14
339 -60 394 -14 16 -31 30 -36 30 -6 0 -4 -8 4 -17z"/>
<path d="M1380 1942 c-19 -9 -40 -24 -47 -32 -11 -13 -12 -12 -13 8 0 30 -24
24 -28 -6 -2 -12 -8 -20 -13 -16 -5 3 -29 2 -52 -2 l-42 -7 48 -13 c26 -6 58
-19 71 -28 24 -15 25 -14 46 22 12 20 28 41 36 45 12 7 40 48 32 46 -2 0 -19
-8 -38 -17z"/>
<path d="M1153 1863 c0 -10 -4 -47 -7 -83 -8 -82 5 -114 51 -118 24 -2 35 2
45 17 7 12 20 21 29 21 24 0 69 39 69 58 -1 33 -36 63 -109 92 -40 17 -74 30
-75 30 -1 0 -2 -8 -3 -17z m89 -42 c50 -21 71 -43 66 -68 -4 -24 -46 -30 -54
-8 -4 9 -2 21 5 28 8 8 11 7 11 -6 0 -9 5 -17 10 -17 14 0 13 23 -2 38 -8 8
-17 8 -30 1 -14 -7 -20 -6 -24 6 -3 8 -12 15 -20 15 -10 0 -11 -6 -5 -22 6
-16 4 -26 -7 -34 -16 -12 -10 -44 7 -44 6 0 8 7 5 15 -4 9 0 15 10 15 19 0 22
-35 4 -47 -38 -23 -54 2 -49 81 3 75 6 76 73 47z"/>
<path d="M1107 1834 c-16 -22 -21 -33 -26 -63 -1 -3 -7 4 -15 15 -14 18 -15
18 -21 1 -4 -9 -2 -24 5 -32 10 -12 9 -15 -7 -15 -11 0 -33 -12 -49 -27 -29
-26 -29 -27 -4 -19 14 4 49 10 78 13 52 5 53 6 49 37 -2 17 2 50 9 74 15 48 8
53 -19 16z"/>
<path d="M1016 1679 c-32 -5 -61 -11 -64 -14 -9 -9 49 -132 73 -155 34 -32 77
-24 90 15 6 17 20 44 33 59 27 35 28 57 3 80 -24 22 -60 26 -135 15z m119 -29
c10 -17 -3 -60 -19 -60 -16 0 -41 28 -33 37 4 3 13 0 22 -7 12 -10 15 -10 15
4 0 22 -30 33 -44 15 -6 -8 -21 -13 -33 -11 -23 3 -30 -8 -15 -22 4 -4 7 -20
7 -34 0 -21 5 -28 25 -30 23 -2 24 -2 7 12 -13 10 -15 16 -7 21 7 4 19 1 27
-8 12 -11 12 -19 4 -35 -11 -20 -25 -23 -48 -9 -11 7 -63 108 -63 122 0 14
146 19 155 5z"/>
<path d="M926 1606 c-4 -18 -4 -41 0 -50 4 -12 0 -16 -15 -16 -27 0 -27 -26 0
-33 l20 -6 -20 -20 c-12 -12 -21 -25 -21 -30 0 -5 -3 -18 -6 -28 -4 -11 5 -6
22 13 16 18 44 39 62 48 l32 17 -19 27 c-11 15 -25 46 -31 70 -6 23 -12 42
-14 42 -2 0 -7 -15 -10 -34z"/>
<path d="M983 1466 c-12 -7 -38 -26 -59 -44 -20 -18 -41 -32 -46 -32 -19 0 -5
-18 45 -56 47 -37 79 -54 115 -60 25 -5 55 36 48 64 -8 34 -8 40 0 75 13 54
-46 84 -103 53z m75 -45 c-3 -28 -38 -37 -46 -12 -3 10 0 12 12 8 9 -4 16 -2
16 2 0 12 -29 23 -41 15 -5 -3 -9 -13 -9 -23 0 -11 -10 -22 -22 -25 l-23 -7
22 -11 c12 -6 23 -19 26 -29 5 -20 47 -27 47 -9 0 6 -7 10 -15 10 -19 0 -20
16 -2 23 22 8 39 -8 35 -34 -5 -36 -34 -35 -95 6 -62 41 -61 44 13 94 54 35
87 32 82 -8z"/>
<path d="M882 1319 c6 -19 18 -42 26 -51 14 -16 13 -18 -1 -18 -10 0 -17 -7
-17 -16 0 -12 7 -15 24 -12 22 4 23 3 15 -19 -5 -13 -5 -33 1 -47 5 -13 6 -27
2 -32 -4 -4 -1 -4 6 0 6 4 12 17 12 29 0 12 11 41 24 64 24 42 24 42 4 49 -12
3 -40 24 -64 46 l-44 40 12 -33z"/>
<path d="M1044 1260 c-26 -10 -48 -44 -74 -112 -24 -62 -24 -64 -7 -66 6 0 46
-4 88 -8 70 -6 78 -5 98 15 28 28 27 54 -4 82 -13 13 -25 32 -25 42 0 17 -34
58 -47 56 -5 0 -17 -4 -29 -9z m45 -34 c16 -19 -3 -58 -24 -50 -20 8 -19 24 2
24 13 0 14 3 5 12 -16 16 -44 -9 -37 -33 3 -9 1 -20 -5 -24 -18 -11 -11 -33
10 -28 11 3 27 -2 36 -11 12 -13 19 -14 30 -5 21 17 17 31 -6 24 -22 -7 -26 5
-8 23 17 17 48 -4 48 -32 0 -13 -6 -26 -12 -28 -18 -7 -131 1 -140 10 -8 8 26
89 49 114 19 22 37 23 52 4z"/>
<path d="M970 1062 c0 -14 55 -52 67 -48 16 6 17 -6 2 -21 -20 -20 0 -36 25
-20 20 14 22 13 23 -6 1 -11 14 -32 28 -46 l26 -26 -14 40 c-8 22 -13 57 -11
77 3 35 3 36 -29 34 -18 -2 -51 3 -74 10 -24 6 -43 9 -43 6z"/>
<path d="M1425 428 c-5 -35 -3 -99 4 -176 0 -7 9 -12 19 -11 34 3 42 -1 42
-22 0 -11 -10 -29 -21 -38 l-22 -17 28 -62 c15 -33 36 -69 47 -79 19 -17 20
-17 13 22 -4 22 -9 49 -11 60 -2 10 1 36 7 57 9 35 7 44 -26 102 -20 35 -42
94 -50 131 -7 37 -16 69 -19 72 -2 3 -7 -15 -11 -39z"/>
</g>
</svg>
